<mxfile host="app.diagrams.net" modified="2021-12-21T18:45:15.854Z" agent="5.0 (Macintosh; Intel Mac OS X 10_15_7) AppleWebKit/605.1.15 (KHTML, like Gecko) Version/14.1 Safari/605.1.15" etag="Gs6wLYg8BIvYqkHG8Xrt" version="16.0.2" type="github">
  <diagram name="Page-1" id="2a216829-ef6e-dabb-86c1-c78162f3ba2b">
    <mxGraphModel dx="926" dy="581" grid="1" gridSize="10" guides="1" tooltips="1" connect="1" arrows="1" fold="1" page="1" pageScale="1" pageWidth="850" pageHeight="1100" background="none" math="0" shadow="0">
      <root>
        <mxCell id="0" />
        <mxCell id="1" parent="0" />
        <mxCell id="pmhAZQauDZkybutt1U_0-5" value="&lt;font style=&quot;font-size: 25px&quot;&gt;C&lt;sub&gt;1&lt;/sub&gt;&lt;/font&gt;" style="rounded=1;whiteSpace=wrap;html=1;" vertex="1" parent="1">
          <mxGeometry x="530" y="200" width="120" height="60" as="geometry" />
        </mxCell>
        <mxCell id="pmhAZQauDZkybutt1U_0-6" value="&lt;font style=&quot;font-size: 25px&quot;&gt;T&lt;/font&gt;&lt;font style=&quot;font-size: 20.833332061767578px&quot;&gt;&lt;sub&gt;1&lt;/sub&gt;&lt;/font&gt;" style="rounded=1;whiteSpace=wrap;html=1;" vertex="1" parent="1">
          <mxGeometry x="365" y="350" width="120" height="60" as="geometry" />
        </mxCell>
        <mxCell id="pmhAZQauDZkybutt1U_0-7" value="&lt;font style=&quot;font-size: 25px&quot;&gt;T&lt;sub&gt;2&lt;/sub&gt;&lt;/font&gt;" style="rounded=1;whiteSpace=wrap;html=1;" vertex="1" parent="1">
          <mxGeometry x="100" y="560" width="120" height="60" as="geometry" />
        </mxCell>
        <mxCell id="pmhAZQauDZkybutt1U_0-9" value="&lt;font style=&quot;font-size: 24px&quot;&gt;V&lt;sub&gt;1&lt;/sub&gt;&lt;/font&gt;" style="rounded=1;whiteSpace=wrap;html=1;" vertex="1" parent="1">
          <mxGeometry x="670" y="460" width="120" height="60" as="geometry" />
        </mxCell>
        <mxCell id="pmhAZQauDZkybutt1U_0-12" value="I&lt;sub&gt;2&lt;/sub&gt;" style="ellipse;whiteSpace=wrap;html=1;aspect=fixed;fontSize=25;" vertex="1" parent="1">
          <mxGeometry x="140" y="60" width="80" height="80" as="geometry" />
        </mxCell>
        <mxCell id="pmhAZQauDZkybutt1U_0-13" value="I&lt;span style=&quot;font-size: 20.833332061767578px&quot;&gt;&lt;sub&gt;5&lt;/sub&gt;&lt;/span&gt;" style="ellipse;whiteSpace=wrap;html=1;aspect=fixed;fontSize=25;" vertex="1" parent="1">
          <mxGeometry x="200" y="280" width="80" height="80" as="geometry" />
        </mxCell>
        <mxCell id="pmhAZQauDZkybutt1U_0-14" value="I&lt;sub&gt;4&lt;/sub&gt;" style="ellipse;whiteSpace=wrap;html=1;aspect=fixed;fontSize=25;" vertex="1" parent="1">
          <mxGeometry x="460" y="40" width="80" height="80" as="geometry" />
        </mxCell>
        <mxCell id="pmhAZQauDZkybutt1U_0-15" value="I&lt;sub&gt;10&lt;/sub&gt;" style="ellipse;whiteSpace=wrap;html=1;aspect=fixed;fontSize=25;" vertex="1" parent="1">
          <mxGeometry x="680" y="30" width="80" height="80" as="geometry" />
        </mxCell>
        <mxCell id="pmhAZQauDZkybutt1U_0-16" value="I&lt;span style=&quot;font-size: 20.833332061767578px&quot;&gt;&lt;sub&gt;11&lt;/sub&gt;&lt;/span&gt;" style="ellipse;whiteSpace=wrap;html=1;aspect=fixed;fontSize=25;" vertex="1" parent="1">
          <mxGeometry x="730" y="210" width="80" height="80" as="geometry" />
        </mxCell>
        <mxCell id="pmhAZQauDZkybutt1U_0-17" value="I&lt;sub&gt;3&lt;/sub&gt;" style="ellipse;whiteSpace=wrap;html=1;aspect=fixed;fontSize=25;" vertex="1" parent="1">
          <mxGeometry x="385" y="500" width="80" height="80" as="geometry" />
        </mxCell>
        <mxCell id="pmhAZQauDZkybutt1U_0-22" value="" style="edgeStyle=elbowEdgeStyle;elbow=vertical;endArrow=classic;html=1;rounded=0;fontSize=25;fontColor=#FF8000;labelBorderColor=#FF8000;fillColor=#fa6800;strokeColor=#C73500;strokeWidth=3;" edge="1" parent="1" source="pmhAZQauDZkybutt1U_0-12" target="pmhAZQauDZkybutt1U_0-6">
          <mxGeometry width="50" height="50" relative="1" as="geometry">
            <mxPoint x="320" y="450" as="sourcePoint" />
            <mxPoint x="430" y="230" as="targetPoint" />
            <Array as="points">
              <mxPoint x="425" y="80" />
              <mxPoint x="450" y="80" />
              <mxPoint x="250" y="80" />
              <mxPoint x="440" y="100" />
            </Array>
          </mxGeometry>
        </mxCell>
        <mxCell id="pmhAZQauDZkybutt1U_0-23" value="&lt;font style=&quot;font-size: 16px&quot; color=&quot;#000000&quot;&gt;r&lt;sub&gt;1&lt;/sub&gt;&lt;/font&gt;" style="text;html=1;strokeColor=none;fillColor=none;align=center;verticalAlign=middle;whiteSpace=wrap;rounded=0;fontSize=25;fontColor=#FF8000;rotation=-30;" vertex="1" parent="1">
          <mxGeometry x="290" y="40" width="60" height="35" as="geometry" />
        </mxCell>
        <mxCell id="pmhAZQauDZkybutt1U_0-24" value="" style="edgeStyle=elbowEdgeStyle;elbow=vertical;endArrow=classic;html=1;rounded=0;fontSize=25;fontColor=#FF8000;labelBorderColor=#FF8000;fillColor=#6a00ff;strokeColor=#3700CC;entryX=0.25;entryY=0;entryDx=0;entryDy=0;exitX=1;exitY=0.5;exitDx=0;exitDy=0;jumpSize=6;strokeWidth=3;" edge="1" parent="1" source="pmhAZQauDZkybutt1U_0-12" target="pmhAZQauDZkybutt1U_0-6">
          <mxGeometry width="50" height="50" relative="1" as="geometry">
            <mxPoint x="280" y="170" as="sourcePoint" />
            <mxPoint x="425" y="430" as="targetPoint" />
            <Array as="points">
              <mxPoint x="420" y="100" />
              <mxPoint x="430" y="100" />
              <mxPoint x="360" y="100" />
              <mxPoint x="320" y="100" />
              <mxPoint x="320" y="100" />
              <mxPoint x="300" y="119" />
            </Array>
          </mxGeometry>
        </mxCell>
        <mxCell id="pmhAZQauDZkybutt1U_0-25" value="&lt;font color=&quot;#000000&quot;&gt;r&lt;sub&gt;5&lt;/sub&gt;&lt;/font&gt;" style="text;html=1;strokeColor=none;fillColor=none;align=center;verticalAlign=middle;whiteSpace=wrap;rounded=0;fontSize=16;fontColor=#FF8000;rotation=-30;" vertex="1" parent="1">
          <mxGeometry x="350" y="200" width="60" height="30" as="geometry" />
        </mxCell>
        <mxCell id="pmhAZQauDZkybutt1U_0-26" value="" style="endArrow=classic;html=1;rounded=0;labelBorderColor=#FF8000;fontSize=16;fontColor=#000000;strokeWidth=3;jumpSize=6;exitX=0.5;exitY=0;exitDx=0;exitDy=0;entryX=0.5;entryY=1;entryDx=0;entryDy=0;fillColor=#a20025;strokeColor=#6F0000;" edge="1" parent="1" source="pmhAZQauDZkybutt1U_0-17" target="pmhAZQauDZkybutt1U_0-6">
          <mxGeometry width="50" height="50" relative="1" as="geometry">
            <mxPoint x="410" y="410" as="sourcePoint" />
            <mxPoint x="460" y="360" as="targetPoint" />
          </mxGeometry>
        </mxCell>
        <mxCell id="pmhAZQauDZkybutt1U_0-27" value="r&lt;sub&gt;6&lt;/sub&gt;" style="text;html=1;strokeColor=none;fillColor=none;align=center;verticalAlign=middle;whiteSpace=wrap;rounded=0;fontSize=16;fontColor=#000000;rotation=-30;" vertex="1" parent="1">
          <mxGeometry x="380" y="440" width="60" height="30" as="geometry" />
        </mxCell>
      </root>
    </mxGraphModel>
  </diagram>
</mxfile>
